<svg xmlns="http://www.w3.org/2000/svg" fill="none" viewBox="0 0 512 512" id="Aws--Streamline-Svg-Logos" height="512" width="512"><desc>Aws Streamline Icon: https://streamlinehq.com</desc><path fill="#252f3e" d="M146.61173333333332 214.98186666666666c0 6.169066666666667 0.6666666666666666 11.171199999999999 1.8341333333333332 14.839466666666667 1.3338666666666665 3.6682666666666663 3.0010666666666665 7.669866666666666 5.335466666666666 12.005333333333333 0.8335999999999999 1.3338666666666665 1.1669333333333332 2.667733333333333 1.1669333333333332 3.8346666666666662 0 1.667733333333333 -1 3.334933333333333 -3.1679999999999997 5.002133333333333l-10.504533333333333 7.0032c-1.5002666666666666 1.0005333333333333 -3.0010666666666665 1.5008 -4.334933333333333 1.5008 -1.6671999999999998 0 -3.334933333333333 -0.8341333333333334 -5.002133333333333 -2.3343999999999996 -2.3343999999999996 -2.501333333333333 -4.335466666666666 -5.169066666666666 -6.002666666666666 -7.8368 -1.6671999999999998 -2.8346666666666662 -3.334933333333333 -6.002666666666666 -5.169066666666666 -9.837866666666667 -13.005333333333333 15.340266666666666 -29.345599999999997 23.010133333333332 -49.020799999999994 23.010133333333332 -14.005866666666666 0 -25.177439999999997 -4.0016 -33.34762666666666 -12.005333333333333 -8.170133333333332 -8.0032 -12.338613333333331 -18.674666666666667 -12.338613333333331 -32.013333333333335 0 -14.172799999999999 5.002133333333333 -25.677866666666667 15.173173333333333 -34.34826666666666 10.17104 -8.670399999999999 23.6768 -13.005866666666666 40.85066666666667 -13.005866666666666 5.6693333333333324 0 11.505066666666666 0.5002666666666666 17.674666666666667 1.3343999999999998 6.169066666666667 0.8335999999999999 12.505066666666666 2.1674666666666664 19.174933333333332 3.6682666666666663v-12.172266666666667c0 -12.671999999999999 -2.6682666666666663 -21.509333333333334 -7.8368 -26.677866666666667 -5.335999999999999 -5.169066666666666 -14.339733333333331 -7.669866666666666 -27.178666666666665 -7.669866666666666 -5.835733333333334 0 -11.8384 0.6666666666666666 -18.007466666666666 2.1674666666666664 -6.1696 1.5008 -12.171733333333332 3.334933333333333 -18.007786666666664 5.668799999999999 -2.66784 1.1674666666666667 -4.668693333333334 1.8341333333333332 -5.835839999999999 2.1679999999999997 -1.1671999999999998 0.3333333333333333 -2.000853333333333 0.5002666666666666 -2.66784 0.5002666666666666 -2.334293333333333 0 -3.501493333333333 -1.667733333333333 -3.501493333333333 -5.169066666666666v-8.170133333333332c0 -2.667733333333333 0.3334933333333333 -4.668799999999999 1.1671999999999998 -5.835733333333334 0.8336533333333334 -1.1674666666666667 2.334293333333333 -2.3343999999999996 4.66864 -3.5018666666666665 5.835839999999999 -3.0010666666666665 12.838986666666665 -5.5024 21.00912 -7.502933333333333 8.170133333333332 -2.1674666666666664 16.840533333333333 -3.1679999999999997 26.011200000000002 -3.1679999999999997 19.8416 0 34.34773333333333 4.5018666666666665 43.68533333333333 13.505600000000001 9.170666666666666 9.003733333333333 13.839466666666667 22.676266666666667 13.839466666666667 41.0176v54.023466666666664h0.3333333333333333Zm-67.696 25.343999999999998c5.5024 0 11.171733333333332 -1.0005333333333333 17.1744 -3.0016 6.002133333333333 -2.0005333333333333 11.338133333333333 -5.668799999999999 15.84 -10.670933333333332 2.667733333333333 -3.1679999999999997 4.668799999999999 -6.6693333333333324 5.668799999999999 -10.671466666666667 1.0005333333333333 -4.0016 1.667733333333333 -8.8368 1.667733333333333 -14.506133333333333v-7.002666666666666c-4.835733333333333 -1.1674666666666667 -10.004266666666666 -2.1679999999999997 -15.340266666666666 -2.8346666666666662 -5.335466666666666 -0.6671999999999999 -10.504533333333333 -1.0005333333333333 -15.673066666666665 -1.0005333333333333 -11.171733333333332 0 -19.341866666666665 2.1674666666666664 -24.844266666666663 6.6693333333333324 -5.5024 4.5018666666666665 -8.170133333333332 10.8384 -8.170133333333332 19.174933333333332 0 7.8368 2.0010666666666665 13.672533333333334 6.1696 17.67413333333333 4.0016 4.1685333333333325 9.837333333333333 6.1696 17.507199999999997 6.1696Zm133.8912 18.007466666666666c-3.0016 0 -5.002666666666666 -0.5002666666666666 -6.336533333333333 -1.6671999999999998 -1.3338666666666665 -1.0005333333333333 -2.5008 -3.334933333333333 -3.501333333333333 -6.502933333333333L163.7856 121.27466666666666c-1.0005333333333333 -3.334933333333333 -1.5008 -5.5024 -1.5008 -6.6693333333333324 0 -2.667733333333333 1.3338666666666665 -4.1685333333333325 4.002133333333333 -4.1685333333333325h16.340266666666665c3.1679999999999997 0 5.335466666666666 0.5002666666666666 6.5024 1.6671999999999998 1.3343999999999998 1.0005333333333333 2.3343999999999996 3.334933333333333 3.334933333333333 6.502933333333333l28.012266666666665 110.3808 26.011200000000002 -110.3808c0.8335999999999999 -3.334933333333333 1.8341333333333332 -5.5024 3.1679999999999997 -6.502933333333333s3.6682666666666663 -1.6671999999999998 6.6693333333333324 -1.6671999999999998h13.3392c3.1679999999999997 0 5.335466666666666 0.5002666666666666 6.6693333333333324 1.6671999999999998 1.3338666666666665 1.0005333333333333 2.501333333333333 3.334933333333333 3.1679999999999997 6.502933333333333l26.344533333333334 111.71466666666666 28.845866666666666 -111.71466666666666c1.0005333333333333 -3.334933333333333 2.1674666666666664 -5.5024 3.334933333333333 -6.502933333333333 1.3338666666666665 -1.0005333333333333 3.501333333333333 -1.6671999999999998 6.5024 -1.6671999999999998h15.506666666666668c2.6682666666666663 0 4.1685333333333325 1.3338666666666665 4.1685333333333325 4.1685333333333325 0 0.8335999999999999 -0.1664 1.6671999999999998 -0.3333333333333333 2.667733333333333s-0.5002666666666666 2.3343999999999996 -1.1669333333333332 4.1685333333333325l-40.184 128.88853333333333c-1.0005333333333333 3.334933333333333 -2.1674666666666664 5.5024 -3.5018666666666665 6.502933333333333 -1.3338666666666665 1 -3.501333333333333 1.6671999999999998 -6.335999999999999 1.6671999999999998h-14.3392c-3.1679999999999997 0 -5.335466666666666 -0.5002666666666666 -6.669866666666666 -1.6671999999999998 -1.3338666666666665 -1.1674666666666667 -2.5008 -3.334933333333333 -3.1679999999999997 -6.669866666666666L262.66133333333335 142.61706666666666l-25.677866666666667 107.37973333333333c-0.8335999999999999 3.3343999999999996 -1.8341333333333332 5.5024 -3.1679999999999997 6.6693333333333324 -1.3338666666666665 1.1669333333333332 -3.6682666666666663 1.6671999999999998 -6.6693333333333324 1.6671999999999998h-14.3392Zm214.25813333333332 4.5024c-8.670399999999999 0 -17.340799999999998 -1.0005333333333333 -25.67733333333333 -3.0016 -8.337066666666665 -2.0010666666666665 -14.84 -4.1685333333333325 -19.174933333333332 -6.6693333333333324 -2.667733333333333 -1.5008 -4.5018666666666665 -3.1679999999999997 -5.169066666666666 -4.668799999999999 -0.6666666666666666 -1.5008 -1.0005333333333333 -3.1679999999999997 -1.0005333333333333 -4.668799999999999v-8.503466666666666c0 -3.501333333333333 1.3338666666666665 -5.169066666666666 3.8351999999999995 -5.169066666666666 1.0005333333333333 0 2.0010666666666665 0.16693333333333332 3.0010666666666665 0.5002666666666666 1.0005333333333333 0.3333333333333333 2.501333333333333 1.0005333333333333 4.1685333333333325 1.6671999999999998 5.6693333333333324 2.501333333333333 11.8384 4.5024 18.34133333333333 5.836266666666667 6.6693333333333324 1.3338666666666665 13.172266666666667 2.0005333333333333 19.8416 2.0005333333333333 10.504533333333333 0 18.674666666666667 -1.8341333333333332 24.343999999999998 -5.5024 5.6693333333333324 -3.6682666666666663 8.670399999999999 -9.003733333333333 8.670399999999999 -15.84 0 -4.668799999999999 -1.5008 -8.503466666666666 -4.5018666666666665 -11.671466666666667 -3.0016 -3.1679999999999997 -8.670399999999999 -6.002666666666666 -16.840533333333333 -8.670399999999999l-24.177066666666665 -7.503466666666666c-12.171733333333332 -3.8346666666666662 -21.176 -9.504 -26.6784 -17.006933333333333 -5.5024 -7.336533333333333 -8.336533333333332 -15.506666666666668 -8.336533333333332 -24.177066666666665 0 -7.0032 1.5002666666666666 -13.172799999999999 4.5018666666666665 -18.508266666666664 3.0010666666666665 -5.335466666666666 7.002666666666666 -10.004266666666666 12.0048 -13.672533333333334 5.002133333333333 -3.8346666666666662 10.671466666666667 -6.6693333333333324 17.340799999999998 -8.670399999999999 6.669866666666666 -2.0005333333333333 13.672533333333334 -2.8346666666666662 21.009066666666666 -2.8346666666666662 3.6682666666666663 0 7.503466666666666 0.16693333333333332 11.171733333333332 0.6671999999999999 3.8346666666666662 0.5002666666666666 7.336533333333333 1.1669333333333332 10.837866666666665 1.8341333333333332 3.334933333333333 0.8335999999999999 6.502933333333333 1.6671999999999998 9.504 2.667733333333333 3.0016 1.0005333333333333 5.335466666666666 2.0010666666666665 7.0032 3.0016 2.3343999999999996 1.3338666666666665 4.0016 2.667733333333333 5.002133333333333 4.167999999999999 1.0005333333333333 1.3338666666666665 1.5008 3.1679999999999997 1.5008 5.5024v7.8368c0 3.501333333333333 -1.3343999999999998 5.335466666666666 -3.8351999999999995 5.335466666666666 -1.3338666666666665 0 -3.501333333333333 -0.6666666666666666 -6.335999999999999 -2.0005333333333333 -9.504 -4.335466666666666 -20.175466666666665 -6.502933333333333 -32.013866666666665 -6.502933333333333 -9.504 0 -17.007466666666666 1.5008 -22.176000000000002 4.668799999999999 -5.169066666666666 3.1679999999999997 -7.8368 8.0032 -7.8368 14.839466666666667 0 4.668799999999999 1.6671999999999998 8.670399999999999 5.002133333333333 11.8384 3.334933333333333 3.1679999999999997 9.504 6.335999999999999 18.34133333333333 9.170666666666666l23.6768 7.503466666666666c12.0048 3.8346666666666662 20.675199999999997 9.170666666666666 25.844266666666663 16.006933333333333 5.169066666666666 6.836266666666667 7.669866666666666 14.672533333333334 7.669866666666666 23.342933333333335 0 7.170133333333333 -1.5002666666666666 13.672533333333334 -4.334933333333333 19.341866666666665 -3.0016 5.668799999999999 -7.0032 10.670933333333332 -12.172266666666667 14.673066666666665 -5.1685333333333325 4.1685333333333325 -11.338133333333333 7.1696 -18.507733333333334 9.337066666666665 -7.502933333333333 2.3343999999999996 -15.339733333333331 3.5018666666666665 -23.843733333333333 3.5018666666666665Z" stroke-width="5.3333"></path><path fill="#FF9900" d="M458.5813333333333 343.86826666666667c-54.85706666666667 40.51733333333333 -134.55786666666665 62.02666666666667 -203.08746666666664 62.02666666666667 -96.04106666666667 0 -182.57813333333334 -35.51573333333333 -247.93957333333333 -94.5408 -5.168863999999999 -4.668799999999999 -0.5002133333333333 -11.0048 5.6691199999999995 -7.336533333333333C83.92053333333332 345.03520000000003 171.12426666666664 369.87946666666664 261.3301333333333 369.87946666666664c60.859199999999994 0 127.72106666666667 -12.672533333333334 189.24746666666664 -38.68373333333333 9.170666666666666 -4.167999999999999 17.007466666666666 6.002666666666666 8.003733333333333 12.672533333333334Zm22.8432 -26.011200000000002c-7.0032 -9.004266666666666 -46.3536 -4.335466666666666 -64.19466666666666 -2.1679999999999997 -5.335466666666666 0.6671999999999999 -6.169066666666667 -4.0016 -1.3338666666666665 -7.502933333333333 31.3472 -22.0096 82.86933333333333 -15.6736 88.87146666666666 -8.337066666666665 6.002666666666666 7.503466666666666 -1.6671999999999998 59.0256 -31.013333333333335 83.70293333333333 -4.5018666666666665 3.8346666666666662 -8.8368 1.8341333333333332 -6.836266666666667 -3.168533333333333 6.669866666666666 -16.506666666666668 21.509333333333334 -53.6896 14.506666666666668 -62.526399999999995Z" stroke-width="5.3333"></path></svg>