<svg xmlns="http://www.w3.org/2000/svg" fill="none" viewBox="0 0 512 512" id="Kubernetes--Streamline-Svg-Logos" height="512" width="512"><desc>Kubernetes Streamline Icon: https://streamlinehq.com</desc><path fill="#326de6" d="M165.39733333333334 492.31146666666666c-11.669866666666666 0 -22.6912 -5.1866666666666665 -30.146666666666665 -14.5872L21.794826666666665 336.71466666666663c-7.455679999999999 -9.400533333333332 -10.37312 -21.394666666666666 -7.455679999999999 -33.06399999999999L54.859199999999994 127.632c2.5930666666666666 -11.669866666666666 10.3728 -21.0704 21.0704 -26.257066666666663L239.95413333333332 22.92832c5.1866666666666665 -2.59328 11.021333333333333 -3.88992 16.85653333333333 -3.88992 5.834666666666667 0 11.669333333333334 1.29664 16.855999999999998 3.88992L437.6912 101.05066666666666c10.697599999999998 5.1866666666666665 18.477333333333334 14.5872 21.0704 26.257066666666663l40.519999999999996 176.01866666666666c2.5936 11.669866666666666 0 23.663466666666665 -7.455466666666666 33.06399999999999l-113.45599999999999 141.00959999999998c-7.455466666666666 9.076266666666665 -18.476799999999997 14.5872 -30.146666666666665 14.5872l-182.8261333333333 0.32426666666666665Z" stroke-width="5.3333"></path><path fill="#ffffff" d="M256.4864 27.14304c4.538133333333333 0 9.076266666666665 0.97248 13.290133333333332 2.9174399999999996L433.8016 108.18293333333334c8.428266666666666 4.213866666666666 14.911466666666666 11.994133333333332 16.855999999999998 21.0704l40.519999999999996 176.01866666666666c2.269333333333333 9.400533333333332 0 19.12533333333333 -6.158933333333334 26.5808L371.5626666666667 472.8624c-5.834666666666667 7.455466666666666 -14.910933333333332 11.669866666666666 -24.312 11.669866666666666H165.39733333333334c-9.400533333333332 0 -18.476799999999997 -4.2143999999999995 -24.312 -11.669866666666666L27.6296 331.8528c-5.834826666666666 -7.455466666666666 -8.103946666666666 -17.180266666666665 -6.1589866666666655 -26.5808L61.9904 129.25333333333333c2.269333333333333 -9.400533333333332 8.428266666666666 -17.180266666666665 16.85653333333333 -21.0704L242.87146666666666 29.73632c4.213866666666666 -1.6208 9.076266666666665 -2.59328 13.614933333333333 -2.59328Zm0 -15.235466666666667c-6.8074666666666666 0 -13.614933333333333 1.6208 -20.098133333333333 4.538186666666666L72.36373333333333 94.89226666666667c-12.9664 6.158933333333334 -22.04293333333333 17.50453333333333 -25.284533333333332 31.44373333333333L6.5592533333333325 302.3546666666666c-3.2415946666666664 13.938666666666666 0 28.2016 9.07648 39.5472l113.45599999999999 141.00959999999998c8.751999999999999 11.021333333333333 22.042666666666666 17.180266666666665 35.98133333333333 17.180266666666665h181.85386666666665c13.938666666666666 0 27.229333333333333 -6.158933333333334 35.98133333333333 -17.180266666666665l113.45599999999999 -141.00959999999998c9.076266666666665 -11.021333333333333 12.317866666666667 -25.60853333333333 9.076266666666665 -39.5472L464.92106666666666 126.33599999999998c-3.2416 -13.9392 -12.318399999999999 -25.284799999999997 -25.284799999999997 -31.44373333333333L276.2597333333333 16.44576c-6.158933333333334 -2.9173866666666664 -12.9664 -4.538186666666666 -19.773333333333333 -4.538186666666666Z" stroke-width="5.3333"></path><path fill="#ffffff" d="M420.83466666666664 291.33226666666667c-0.32426666666666665 0 -0.32426666666666665 0 0 0h-0.32426666666666665c-0.3237333333333333 0 -0.6479999999999999 0 -0.6479999999999999 -0.32426666666666665 -0.6485333333333333 0 -1.2965333333333333 -0.3237333333333333 -1.9450666666666667 -0.3237333333333333 -2.269333333333333 -0.32426666666666665 -4.213866666666666 -0.6485333333333333 -6.158933333333334 -0.6485333333333333 -0.9728 0 -1.9450666666666667 0 -3.2416 -0.32426666666666665h-0.32426666666666665c-6.8074666666666666 -0.6479999999999999 -12.317866666666667 -1.2965333333333333 -17.50453333333333 -2.9173333333333336 -2.269333333333333 -0.9722666666666666 -2.9173333333333336 -2.269333333333333 -3.5658666666666665 -3.5658666666666665 0 -0.32426666666666665 -0.32426666666666665 -0.32426666666666665 -0.32426666666666665 -0.6479999999999999l-4.213866666666666 -1.2965333333333333c1.9450666666666667 -14.911466666666666 1.2965333333333333 -30.471466666666664 -2.269333333333333 -45.70666666666666 -3.5653333333333332 -15.235733333333332 -9.724799999999998 -29.498666666666665 -18.15253333333333 -42.465066666666665l3.2416 -2.9173333333333336v-0.6485333333333333c0 -1.6208 0.3237333333333333 -3.2416 1.6208 -4.862399999999999 3.8895999999999997 -3.5653333333333332 8.751999999999999 -6.4832 14.5872 -10.048533333333333 0.9722666666666666 -0.6485333333333333 1.9445333333333332 -0.9728 2.9173333333333336 -1.6208 1.9450666666666667 -0.9728 3.5658666666666665 -1.9450666666666667 5.510399999999999 -3.2416 0.32426666666666665 -0.32426666666666665 0.9728 -0.6485333333333333 1.6208 -1.2970666666666666 0.32426666666666665 -0.3237333333333333 0.6485333333333333 -0.3237333333333333 0.6485333333333333 -0.6479999999999999 4.538133333333333 -3.8901333333333334 5.510399999999999 -10.373333333333333 2.2687999999999997 -14.5872 -1.6208 -2.269333333333333 -4.538133333333333 -3.5658666666666665 -7.455466666666666 -3.5658666666666665 -2.5930666666666666 0 -4.862399999999999 0.9722666666666666 -7.1312 2.5930666666666666l-0.6485333333333333 0.6485333333333333c-0.6485333333333333 0.32426666666666665 -0.9722666666666666 0.9722666666666666 -1.6208 1.2965333333333333 -1.6208 1.6208 -2.9173333333333336 2.9173333333333336 -4.213866666666666 4.538133333333333 -0.6485333333333333 0.6485333333333333 -1.2970666666666666 1.6208 -2.269333333333333 2.269333333333333 -4.538133333333333 4.862399999999999 -8.752533333333332 8.752533333333332 -12.9664 11.669866666666666 -0.9722666666666666 0.6479999999999999 -1.9450666666666667 0.9722666666666666 -2.9173333333333336 0.9722666666666666 -0.6485333333333333 0 -1.2965333333333333 0 -1.9450666666666667 -0.32426666666666665h-0.6485333333333333l-3.8895999999999997 2.5936c-4.2143999999999995 -4.538133333333333 -8.752533333333332 -8.428266666666666 -13.290666666666667 -12.318399999999999 -19.449599999999997 -15.235199999999999 -43.11306666666667 -24.635733333333334 -67.74933333333333 -26.905066666666663l-0.32426666666666665 -4.213866666666666c-0.32426666666666665 -0.32426666666666665 -0.32426666666666665 -0.32426666666666665 -0.6479999999999999 -0.6485333333333333 -0.9728 -0.9722666666666666 -2.269333333333333 -1.9450666666666667 -2.5936 -4.213866666666666 -0.32426666666666665 -5.1866666666666665 0.32426666666666665 -11.021333333333333 0.9728 -17.50453333333333v-0.32426666666666665c0 -0.9728 0.3237333333333333 -2.269333333333333 0.6479999999999999 -3.2416 0.32426666666666665 -1.9450666666666667 0.6485333333333333 -3.8901333333333334 0.9728 -6.158933333333334v-2.917866666666667c0 -5.834666666666667 -4.538133333333333 -10.697066666666666 -10.049066666666667 -10.697066666666666 -2.5930666666666666 0 -5.1866666666666665 1.2965333333333333 -7.131733333333333 3.2416 -1.9445333333333332 1.9450666666666667 -2.9173333333333336 4.538133333333333 -2.9173333333333336 7.455466666666666v2.5936c0 2.2687999999999997 0.32426666666666665 4.213866666666666 0.9728 6.158933333333334 0.3237333333333333 0.9722666666666666 0.3237333333333333 1.9450666666666667 0.6479999999999999 3.2416v0.32426666666666665c0.6485333333333333 6.4832 1.6208 12.317866666666667 0.9728 17.50453333333333 -0.32426666666666665 2.269333333333333 -1.6208 3.2416 -2.5936 4.213866666666666 -0.32426666666666665 0.32426666666666665 -0.32426666666666665 0.32426666666666665 -0.6479999999999999 0.6485333333333333l-0.32426666666666665 4.213866666666666c-5.8352 0.6485333333333333 -11.669866666666666 1.2965333333333333 -17.50453333333333 2.5936 -24.960533333333334 5.510399999999999 -47.0032 18.15253333333333 -64.184 36.3056l-3.2416 -2.2687999999999997h-0.6479999999999999c-0.6485333333333333 0 -1.2965333333333333 0.3237333333333333 -1.9450666666666667 0.3237333333333333 -0.9722666666666666 0 -1.9450666666666667 -0.3237333333333333 -2.9173333333333336 -0.9722666666666666 -4.2143999999999995 -2.9173333333333336 -8.428266666666666 -7.131733333333333 -12.9664 -11.994133333333332 -0.6485333333333333 -0.6479999999999999 -1.2965333333333333 -1.6208 -2.269333333333333 -2.2687999999999997 -1.2965333333333333 -1.6208 -2.5930666666666666 -2.9173333333333336 -4.213866666666666 -4.538133333333333 -0.32426666666666665 -0.32426666666666665 -0.9728 -0.6485333333333333 -1.6208 -1.2970666666666666 -0.32426666666666665 -0.3237333333333333 -0.6485333333333333 -0.3237333333333333 -0.6485333333333333 -0.6479999999999999 -1.9450666666666667 -1.6208 -4.538133333333333 -2.5936 -7.1312 -2.5936 -2.9173333333333336 0 -5.8352 1.2970666666666666 -7.4559999999999995 3.5658666666666665 -3.2416 4.2143999999999995 -2.2687999999999997 10.697599999999998 2.269333333333333 14.5872 0.32426666666666665 0 0.32426666666666665 0.32426666666666665 0.6485333333333333 0.32426666666666665 0.6479999999999999 0.32426666666666665 0.9722666666666666 0.9722666666666666 1.6208 1.2965333333333333 1.9445333333333332 1.2965333333333333 3.5653333333333332 2.269333333333333 5.510399999999999 3.2416 0.9722666666666666 0.32426666666666665 1.9450666666666667 0.9728 2.9173333333333336 1.6208 5.8352 3.5658666666666665 10.697599999999998 6.4832 14.5872 10.049066666666667 1.6208 1.6208 1.6208 3.2416 1.6208 4.862399999999999v0.6485333333333333l3.2416 2.9173333333333336c-0.6479999999999999 0.9722666666666666 -1.2965333333333333 1.6208 -1.6208 2.5930666666666666 -16.208 25.60853333333333 -22.366933333333336 55.75573333333333 -18.153066666666668 85.57813333333333l-4.213866666666666 1.2965333333333333c0 0.32426666666666665 -0.32426666666666665 0.32426666666666665 -0.32426666666666665 0.6485333333333333 -0.6479999999999999 1.2965333333333333 -1.6208 2.5930666666666666 -3.5653333333333332 3.5658666666666665 -4.862399999999999 1.6208 -10.697599999999998 2.2687999999999997 -17.505066666666664 2.9173333333333336h-0.3237333333333333c-0.9728 0 -2.269333333333333 0 -3.2416 0.32426666666666665 -1.9450666666666667 0 -3.8901333333333334 0.3237333333333333 -6.159466666666667 0.6479999999999999 -0.6479999999999999 0 -1.2965333333333333 0.32426666666666665 -1.9445333333333332 0.32426666666666665 -0.32426666666666665 0 -0.6485333333333333 0 -0.9728 0.32426666666666665 -5.834666666666667 1.2965333333333333 -9.400533333333332 6.8074666666666666 -8.428266666666666 11.9936 0.9728 4.538666666666666 5.1866666666666665 7.4559999999999995 10.373333333333333 7.4559999999999995 0.9722666666666666 0 1.6208 0 2.5930666666666666 -0.32426666666666665 0.32426666666666665 0 0.6485333333333333 0 0.6485333333333333 -0.32426666666666665 0.6485333333333333 0 1.2965333333333333 -0.32426666666666665 1.9450666666666667 -0.32426666666666665 2.2687999999999997 -0.6479999999999999 3.8895999999999997 -1.2965333333333333 5.834666666666667 -2.2687999999999997 0.9728 -0.32426666666666665 1.9450666666666667 -0.9728 2.9173333333333336 -1.2965333333333333h0.32426666666666665c6.158933333333334 -2.269333333333333 11.669866666666666 -4.2143999999999995 16.85653333333333 -4.862399999999999h0.6479999999999999c1.9450666666666667 0 3.2416 0.9722666666666666 4.2143999999999995 1.6208 0.3237333333333333 0 0.3237333333333333 0.3237333333333333 0.6479999999999999 0.3237333333333333l4.538133333333333 -0.6479999999999999c7.780266666666667 23.98773333333333 22.6912 45.3824 42.465066666666665 60.94186666666667 4.538133333333333 3.5658666666666665 9.076799999999999 6.4832 13.938666666666666 9.400533333333332l-1.9445333333333332 4.2143999999999995c0 0.3237333333333333 0.32426666666666665 0.3237333333333333 0.32426666666666665 0.6479999999999999 0.6479999999999999 1.2965333333333333 1.2965333333333333 2.9173333333333336 0.6479999999999999 5.1866666666666665 -1.9450666666666667 4.862399999999999 -4.862399999999999 9.724799999999998 -8.428266666666666 15.235733333333332v0.3237333333333333c-0.6479999999999999 0.9728 -1.2965333333333333 1.6208 -1.9445333333333332 2.5936 -1.2970666666666666 1.6208 -2.269333333333333 3.2416 -3.5658666666666665 5.1866666666666665 -0.32426666666666665 0.3237333333333333 -0.6485333333333333 0.9722666666666666 -0.9728 1.6208 0 0.3237333333333333 -0.3237333333333333 0.6479999999999999 -0.3237333333333333 0.6479999999999999 -2.5936 5.510933333333334 -0.6485333333333333 11.669866666666666 4.213866666666666 13.938666666666666 1.2965333333333333 0.6485333333333333 2.5930666666666666 0.9728 3.8901333333333334 0.9728 3.8895999999999997 0 7.779733333333334 -2.5936 9.724266666666665 -6.158933333333334 0 -0.32426666666666665 0.32426666666666665 -0.6485333333333333 0.32426666666666665 -0.6485333333333333 0.32426666666666665 -0.6485333333333333 0.6485333333333333 -1.2965333333333333 0.9728 -1.6208 0.9722666666666666 -2.269333333333333 1.2965333333333333 -3.8895999999999997 1.9445333333333332 -5.834666666666667 0.32426666666666665 -0.9728 0.6485333333333333 -1.9450666666666667 0.9728 -2.9173333333333336 2.2687999999999997 -6.4832 3.8895999999999997 -11.669866666666666 6.8074666666666666 -16.208 1.2965333333333333 -1.9450666666666667 2.9173333333333336 -2.269333333333333 4.213866666666666 -2.917866666666667 0.32426666666666665 0 0.32426666666666665 0 0.6485333333333333 -0.3237333333333333l2.2687999999999997 -4.2143999999999995c14.262933333333333 5.510933333333334 29.82293333333333 8.428266666666666 45.3824 8.428266666666666 9.400533333333332 0 19.12533333333333 -0.9722666666666666 28.20213333333333 -3.2416 5.834666666666667 -1.2965333333333333 11.3456 -2.9173333333333336 16.855999999999998 -4.862399999999999l1.9450666666666667 3.5658666666666665c0.32426666666666665 0 0.32426666666666665 0 0.6485333333333333 0.32426666666666665 1.6208 0.3237333333333333 2.9173333333333336 0.9722666666666666 4.213866666666666 2.9173333333333336 2.5930666666666666 4.538133333333333 4.538133333333333 10.049066666666667 6.8074666666666666 16.208v0.32426666666666665c0.32426666666666665 0.9722666666666666 0.6479999999999999 1.9445333333333332 0.9722666666666666 2.9173333333333336 0.6485333333333333 1.9450666666666667 0.9728 3.8895999999999997 1.9450666666666667 5.834666666666667 0.32426666666666665 0.6485333333333333 0.6485333333333333 0.9722666666666666 0.9722666666666666 1.6208 0 0.32426666666666665 0.32426666666666665 0.6485333333333333 0.32426666666666665 0.6485333333333333 1.9450666666666667 3.8895999999999997 5.8352 6.158933333333334 9.724799999999998 6.158933333333334 1.2965333333333333 0 2.5936 -0.32426666666666665 3.8901333333333334 -0.9728 2.2687999999999997 -1.2965333333333333 4.213866666666666 -3.2416 4.862399999999999 -5.834666666666667 0.6479999999999999 -2.5930666666666666 0.6479999999999999 -5.510399999999999 -0.6485333333333333 -8.104 0 -0.32426666666666665 -0.32426666666666665 -0.32426666666666665 -0.32426666666666665 -0.6479999999999999 -0.32426666666666665 -0.6485333333333333 -0.6479999999999999 -1.2970666666666666 -0.9722666666666666 -1.6208 -0.9728 -1.9450666666666667 -2.269333333333333 -3.5658666666666665 -3.5658666666666665 -5.1866666666666665 -0.6485333333333333 -0.9728 -1.2965333333333333 -1.6208 -1.9450666666666667 -2.5936v-0.3237333333333333c-3.5658666666666665 -5.510933333333334 -6.806933333333333 -10.373333333333333 -8.427733333333332 -15.235733333333332 -0.6485333333333333 -2.269333333333333 0 -3.5658666666666665 0.3237333333333333 -5.1866666666666665 0 -0.32426666666666665 0.32426666666666665 -0.32426666666666665 0.32426666666666665 -0.6479999999999999l-1.6208 -3.8901333333333334c17.180266666666665 -10.049066666666667 31.767466666666667 -24.312 42.78933333333333 -41.81653333333333 5.834666666666667 -9.076266666666665 10.3728 -19.12533333333333 13.6144 -29.1744l3.8901333333333334 0.6485333333333333c0.32426666666666665 0 0.32426666666666665 -0.32426666666666665 0.6479999999999999 -0.32426666666666665 1.2970666666666666 -0.6485333333333333 2.269333333333333 -1.6208 4.2143999999999995 -1.6208h0.6479999999999999c5.1866666666666665 0.6479999999999999 10.697599999999998 2.5930666666666666 16.85653333333333 4.862399999999999h0.32426666666666665c0.9722666666666666 0.32426666666666665 1.9445333333333332 0.9722666666666666 2.9173333333333336 1.2965333333333333 1.9450666666666667 0.9722666666666666 3.5658666666666665 1.6208 5.834666666666667 2.269333333333333 0.6485333333333333 0 1.2965333333333333 0.3237333333333333 1.9450666666666667 0.3237333333333333 0.32426666666666665 0 0.6485333333333333 0 0.9722666666666666 0.32426666666666665 0.9728 0.32426666666666665 1.6208 0.32426666666666665 2.5936 0.32426666666666665 4.862399999999999 0 9.076266666666665 -3.2416 10.3728 -7.455466666666666 0 -3.8901333333333334 -3.5653333333333332 -9.076799999999999 -9.400533333333332 -10.697599999999998Zm-150.08586666666667 -15.883733333333334 -14.262933333333333 6.8074666666666666 -14.262933333333333 -6.8074666666666666 -3.5658666666666665 -15.235199999999999 9.724799999999998 -12.318399999999999h15.883733333333334l9.724799999999998 12.318399999999999 -3.2416 15.235199999999999Zm84.60586666666666 -33.71253333333333c2.5930666666666666 11.021333333333333 3.2416 22.042666666666666 2.2687999999999997 32.74026666666666L308.0272 260.2133333333333c-4.538133333333333 -1.2970666666666666 -7.1312 -5.8352 -6.158933333333334 -10.373333333333333 0.32426666666666665 -1.2965333333333333 0.9722666666666666 -2.5930666666666666 1.9450666666666667 -3.5658666666666665l39.22293333333333 -35.33333333333333c5.510933333333334 9.076266666666665 9.724799999999998 19.449599999999997 12.318399999999999 30.795199999999998Zm-27.877866666666666 -50.2448 -42.465066666666665 30.146666666666665c-3.5653333333333332 2.269333333333333 -8.427733333333332 1.6208 -11.345066666666668 -1.9445333333333332 -0.9728 -0.9728 -1.2970666666666666 -2.269333333333333 -1.6208 -3.5658666666666665l-2.917866666666667 -52.83786666666666c22.366933333333336 2.5930666666666666 42.78933333333333 12.642133333333334 58.3488 28.2016Zm-94.0064 -26.5808c3.5658666666666665 -0.6485333333333333 6.8074666666666666 -1.2970666666666666 10.373333333333333 -1.9450666666666667l-2.9173333333333336 51.8656c-0.32426666666666665 4.538133333333333 -3.8901333333333334 8.427733333333332 -8.752533333333332 8.427733333333332 -1.2965333333333333 0 -2.9173333333333336 -0.3237333333333333 -3.8895999999999997 -0.9722666666666666l-43.1136 -30.795199999999998c13.290666666666667 -13.290666666666667 29.82293333333333 -22.366933333333336 48.299733333333336 -26.5808Zm-63.859199999999994 46.03039999999999 38.574933333333334 34.361066666666666c3.5658666666666665 2.9173333333333336 3.8901333333333334 8.428266666666666 0.9722666666666666 11.9936 -0.9722666666666666 1.2970666666666666 -2.2687999999999997 2.269333333333333 -3.8895999999999997 2.5936l-50.2448 14.5872c-1.9450666666666667 -22.0432 2.9173333333333336 -44.410133333333334 14.5872 -63.535466666666665ZM160.85866666666666 298.78826666666663l51.54133333333333 -8.752533333333332c4.2143999999999995 -0.32426666666666665 8.104 2.5930666666666666 9.076799999999999 6.8074666666666666 0.32426666666666665 1.9450666666666667 0.32426666666666665 3.5658666666666665 -0.32426666666666665 5.1866666666666665l-19.773866666666663 47.651199999999996c-18.15253333333333 -11.669866666666666 -32.739733333333334 -29.498666666666665 -40.519999999999996 -50.8928ZM279.17706666666663 363.29599999999994c-7.455466666666666 1.6208 -14.911466666666666 2.5930666666666666 -22.6912 2.5930666666666666 -11.3456 0 -22.366933333333336 -1.9450666666666667 -32.74026666666666 -5.1866666666666665l25.609066666666667 -46.35466666666666c2.5930666666666666 -2.9173333333333336 6.806933333333333 -4.213866666666666 10.3728 -2.269333333333333 1.6208 0.9728 2.9173333333333336 2.269333333333333 3.8901333333333334 3.5658666666666665l24.959999999999997 45.05813333333333c-2.9173333333333336 0.9728 -6.158933333333334 1.6208 -9.400533333333332 2.5936Zm63.2112 -45.05813333333333c-8.104 12.9664 -18.801066666666664 23.339199999999998 -31.119466666666668 31.443199999999997l-20.421866666666666 -48.94826666666666c-0.9728 -3.8895999999999997 0.6479999999999999 -8.104 4.538133333333333 -10.048533333333333 1.2965333333333333 -0.6485333333333333 2.9173333333333336 -0.9728 4.538133333333333 -0.9728l51.8656 8.752533333333332c-1.9450666666666667 7.1312 -5.1866666666666665 13.6144 -9.400533333333332 19.773866666666663Z" stroke-width="5.3333"></path></svg>