<svg xmlns="http://www.w3.org/2000/svg" fill="none" viewBox="0 0 512 512" id="Laravel--Streamline-Svg-Logos" height="512" width="512"><desc>Laravel Streamline Icon: https://streamlinehq.com</desc><path fill="#ff2d20" d="M499.2213333333333 118.74826666666667c0.18026666666666663 0.6682666666666666 0.27413333333333334 1.3573333333333333 0.27413333333333334 2.0496v107.61013333333332c0 2.8112 -1.5034666666666665 5.407466666666666 -3.9423999999999997 6.8064l-90.31893333333332 52v103.06933333333333c0 2.8048 -1.4906666666666668 5.3941333333333334 -3.9232 6.8064L212.7781333333333 505.6218666666667c-0.43146666666666667 0.24533333333333332 -0.9023999999999999 0.4021333333333333 -1.3733333333333333 0.5685333333333333 -0.17653333333333332 0.0592 -0.3429333333333333 0.16693333333333332 -0.5296 0.216 -1.3178666666666665 0.3472 -2.702933333333333 0.3472 -4.0207999999999995 0 -0.216 -0.05866666666666666 -0.4122666666666666 -0.17653333333333332 -0.6181333333333333 -0.25493333333333335 -0.43146666666666667 -0.1568 -0.8826666666666667 -0.2944 -1.2944 -0.5296L16.447893333333333 397.09013333333337c-2.4372266666666667 -1.4 -3.9426666666666663 -3.995733333333333 -3.9426666666666663 -6.8064V67.45386666666667c0 -0.7061333333333333 0.09808 -1.3925333333333332 0.2746133333333333 -2.059733333333333 0.058826666666666666 -0.22559999999999997 0.19616 -0.43146666666666667 0.2746133333333333 -0.6570666666666667 0.14709333333333333 -0.41173333333333334 0.28442666666666666 -0.8335999999999999 0.5001599999999999 -1.216 0.14714666666666665 -0.25493333333333335 0.36288 -0.4608 0.5394133333333333 -0.6965333333333332 0.22559999999999997 -0.3136 0.43157333333333336 -0.6373333333333333 0.6963733333333333 -0.912 0.22559999999999997 -0.22559999999999997 0.5197866666666666 -0.3925333333333333 0.7748266666666666 -0.5882666666666666 0.28442666666666666 -0.23573333333333335 0.5394133333333333 -0.49066666666666664 0.8630399999999999 -0.6768000000000001h0.009813333333333334L110.69013333333334 6.381493333333333c2.4282666666666666 -1.3975466666666665 5.417066666666667 -1.3975466666666665 7.845866666666667 0L212.78773333333334 60.64746666666666h0.019733333333333332c0.3136 0.19626666666666664 0.5786666666666667 0.4410666666666666 0.8629333333333333 0.6666666666666666 0.25493333333333335 0.19626666666666664 0.5397333333333333 0.3728 0.7653333333333332 0.5888 0.2746666666666666 0.28426666666666667 0.4704 0.608 0.7061333333333333 0.9216 0.1664 0.23573333333333335 0.39199999999999996 0.4416 0.5296 0.6965333333333332 0.22559999999999997 0.3925333333333333 0.35306666666666664 0.8042666666666666 0.5098666666666667 1.216 0.0784 0.22559999999999997 0.21546666666666664 0.43146666666666667 0.2746666666666666 0.6671999999999999 0.18026666666666663 0.6682666666666666 0.2725333333333333 1.3573333333333333 0.2746666666666666 2.0496v201.63626666666667l78.53973333333333 -45.22346666666667V120.78826666666666c0 -0.6869333333333333 0.09813333333333332 -1.3829333333333331 0.2746666666666666 -2.04 0.0688 -0.23573333333333335 0.19626666666666664 -0.4416 0.2746666666666666 -0.6671999999999999 0.1568 -0.41173333333333334 0.2944 -0.8335999999999999 0.5098666666666667 -1.216 0.1472 -0.25493333333333335 0.3626666666666667 -0.4608 0.5296 -0.6965333333333332 0.2352 -0.3136 0.43146666666666667 -0.6373333333333333 0.7061333333333333 -0.912 0.22559999999999997 -0.22559999999999997 0.5098666666666667 -0.3925333333333333 0.7653333333333332 -0.5882666666666666 0.29386666666666666 -0.23573333333333335 0.5488 -0.49066666666666664 0.8629333333333333 -0.6768000000000001h0.0096l94.26186666666666 -54.26613333333333c2.4277333333333333 -1.3994666666666666 5.4176 -1.3994666666666666 7.845866666666667 0L495.5626666666667 113.99146666666667c0.33386666666666664 0.19626666666666664 0.5888 0.4410666666666666 0.8826666666666667 0.6666666666666666 0.24533333333333332 0.19626666666666664 0.5296 0.3728 0.7552 0.5888 0.2746666666666666 0.28426666666666667 0.4709333333333333 0.608 0.7061333333333333 0.9216 0.17653333333333332 0.23573333333333335 0.3925333333333333 0.4416 0.5296 0.6965333333333332 0.22559999999999997 0.38239999999999996 0.35306666666666664 0.8042666666666666 0.5104 1.216 0.088 0.22559999999999997 0.21546666666666664 0.43146666666666667 0.2746666666666666 0.6671999999999999ZM483.784 223.86666666666667V134.38133333333332l-32.983466666666665 18.98773333333333 -45.566399999999994 26.235733333333332v89.48533333333333l78.55946666666667 -45.22346666666667h-0.0096ZM389.53226666666666 385.7424V296.1984l-44.82133333333333 25.597866666666665 -127.9904 73.048v90.3872l172.81173333333334 -99.48906666666666ZM28.217119999999998 81.03733333333332v304.70506666666665L201.00906666666666 485.22186666666664v-90.368l-90.2704 -51.088 -0.02933333333333333 -0.019733333333333332 -0.038933333333333334 -0.019733333333333332c-0.304 -0.17653333333333332 -0.5589333333333333 -0.43146666666666667 -0.8437333333333333 -0.6474666666666666 -0.24480000000000002 -0.19573333333333334 -0.5296 -0.35306666666666664 -0.7450666666666665 -0.5685333333333333l-0.019733333333333332 -0.02933333333333333c-0.25493333333333335 -0.24533333333333332 -0.43146666666666667 -0.5493333333333332 -0.6474666666666666 -0.824 -0.19626666666666664 -0.2650666666666667 -0.43146666666666667 -0.49066666666666664 -0.5882666666666666 -0.7647999999999999l-0.010133333333333333 -0.029866666666666666c-0.17653333333333332 -0.29386666666666666 -0.28426666666666667 -0.6469333333333334 -0.41173333333333334 -0.9808 -0.12746666666666667 -0.29386666666666666 -0.2944 -0.5685333333333333 -0.3728 -0.8826666666666667v-0.0096c-0.09813333333333332 -0.3728 -0.11733333333333332 -0.7647999999999999 -0.1568 -1.1477333333333333 -0.038933333333333334 -0.29386666666666666 -0.11786666666666668 -0.5882666666666666 -0.11786666666666668 -0.8826666666666667V126.26079999999999l-45.556266666666666 -26.245333333333335 -32.98341333333333 -18.968v-0.010133333333333333ZM114.62293333333334 22.25029333333333 36.09269333333333 67.45386666666667l78.51050666666666 45.20373333333333 78.52 -45.213333333333324 -78.52 -45.19397333333333h0.019733333333333332Zm40.83893333333333 282.10810666666663 45.556799999999996 -26.2256V81.03733333333332l-32.983466666666665 18.98773333333333 -45.566399999999994 26.235733333333332v197.09493333333333l32.993066666666664 -18.99733333333333Zm241.92586666666665 -228.76426666666669 -78.52 45.20373333333333 78.52 45.20373333333333 78.51093333333333 -45.213333333333324 -78.51093333333333 -45.19413333333333Zm-7.855466666666667 104.01066666666665 -45.566933333333324 -26.235733333333332 -32.982933333333335 -18.98773333333333V223.86666666666667l45.556799999999996 26.22613333333333 32.993066666666664 18.99733333333333V179.60479999999998Zm-180.67733333333334 201.65546666666665L324.02666666666664 315.50986666666665l57.571200000000005 -32.855999999999995 -78.46186666666667 -45.17386666666667 -90.33813333333333 52.01013333333333 -82.33546666666666 47.400533333333335 78.39253333333333 44.3696Z" stroke-width="5.3333"></path></svg>