<svg xmlns="http://www.w3.org/2000/svg" fill="none" viewBox="0 0 512 512" id="React--Streamline-Svg-Logos" height="512" width="512"><desc>React Streamline Icon: https://streamlinehq.com</desc><path fill="#00d8ff" d="M417.5301333333333 177.5504c-5.201066666666666 -1.7898666666666667 -10.589866666666666 -3.4837333333333333 -16.138666666666666 -5.085333333333333 0.912 -3.722133333333333 1.7488000000000001 -7.3962666666666665 2.493333333333333 -11.007466666666666 12.216533333333333 -59.300266666666666 4.2288 -107.0736 -23.0464 -122.80224 -26.1536 -15.081866666666667 -68.92533333333333 0.6434133333333333 -112.1232 38.23690666666666 -4.1536 3.614933333333333 -8.319466666666667 7.442666666666666 -12.483199999999998 11.453866666666666 -2.7744 -2.6538666666666666 -5.5440000000000005 -5.218666666666667 -8.3072 -7.671999999999999 -45.272 -40.19744 -90.65066666666667 -57.13722666666666 -117.89920000000001 -41.36288 -26.12853333333333 15.125546666666667 -33.86613333333333 60.03648 -22.869866666666667 116.23594666666665 1.0618666666666665 5.428266666666667 2.3034666666666666 10.971733333333333 3.7072000000000003 16.607999999999997 -6.4224 1.8229333333333333 -12.622399999999999 3.7669333333333332 -18.5552 5.834133333333334C39.23077333333333 196.49439999999998 5.333333333333333 225.49653333333333 5.333333333333333 255.57920000000001c0 31.069333333333333 36.388906666666664 62.23253333333333 91.67306666666667 81.12853333333334 4.362666666666666 1.4912 8.8896 2.9008000000000003 13.554666666666666 4.239466666666667 -1.514133333333333 6.096 -2.8314666666666666 12.069333333333333 -3.9370666666666665 17.895466666666664 -10.485333333333333 55.224 -2.297066666666667 99.07413333333332 23.76213333333333 114.10453333333334 26.916266666666665 15.5216 72.08959999999999 -0.4330666666666666 116.07733333333334 -38.8832 3.4762666666666666 -3.0394666666666663 6.965866666666667 -6.262933333333333 10.460799999999999 -9.641066666666667 4.530666666666667 4.362666666666666 9.0544 8.491733333333332 13.5536 12.364266666666666 42.60693333333333 36.66506666666666 84.68799999999999 51.46986666666667 110.72319999999999 36.397866666666665 26.8896 -15.566399999999998 35.62826666666666 -62.67146666666666 24.282666666666664 -119.98293333333334 -0.8661333333333332 -4.377066666666666 -1.8746666666666665 -8.848533333333332 -3.006933333333333 -13.4 3.1722666666666663 -0.9376 6.2864 -1.9061333333333332 9.3232 -2.912533333333333C469.27306666666664 317.84746666666666 506.66666666666663 287.0634666666666 506.66666666666663 255.57920000000001c0 -30.191466666666663 -34.990399999999994 -59.3888 -89.13653333333333 -78.02879999999999Zm-12.465599999999998 139.01013333333333c-2.7413333333333334 0.9077333333333333 -5.554133333333334 1.7850666666666666 -8.420266666666667 2.6351999999999998 -6.345066666666666 -20.086399999999998 -14.908266666666666 -41.4448 -25.3872 -63.51253333333333 10 -21.54133333333333 18.232 -42.6272 24.39946666666667 -62.583466666666666 5.128 1.4842666666666666 10.105599999999999 3.0496 14.9024 4.7013333333333325 46.391999999999996 15.970666666666666 74.6912 39.583466666666666 74.6912 57.77813333333333 0 19.380266666666664 -30.562133333333335 44.53866666666667 -80.1856 60.981333333333325Zm-20.5904 40.801066666666664c5.016533333333333 25.342399999999998 5.7333333333333325 48.254400000000004 2.4101333333333335 66.1664 -2.9856 16.0944 -8.9904 26.825066666666665 -16.41493333333333 31.122666666666664 -15.799466666666667 9.145066666666665 -49.58613333333333 -2.7418666666666667 -86.024 -34.09813333333333 -4.1776 -3.5941333333333336 -8.385066666666667 -7.432533333333333 -12.605866666666666 -11.494399999999999 14.126399999999999 -15.449599999999998 28.244266666666665 -33.410133333333334 42.023466666666664 -53.35733333333333 24.235733333333332 -2.150933333333333 47.1328 -5.666666666666666 67.8976 -10.466666666666665 1.0224 4.125333333333333 1.9306666666666665 8.171199999999999 2.7136 12.127466666666665ZM176.24906666666666 453.07039999999995c-15.436266666666665 5.451733333333333 -27.73013333333333 5.6074666666666655 -35.1616 1.3226666666666667 -15.813866666666666 -9.121066666666666 -22.387733333333333 -44.32853333333333 -13.420266666666667 -91.55626666666666 1.0266666666666666 -5.408533333333333 2.2496 -10.964266666666667 3.658666666666667 -16.6432 20.53653333333333 4.541333333333333 43.26613333333333 7.809066666666666 67.56 9.778666666666666 13.872 19.5184 28.397866666666665 37.45973333333333 43.03626666666666 53.16853333333333 -3.1984 3.0879999999999996 -6.384 6.027200000000001 -9.552 8.797333333333333 -19.450666666666663 17.002133333333333 -38.94293333333333 29.065066666666667 -56.121066666666664 35.132266666666666ZM103.9328 316.44213333333335c-24.44533333333333 -8.3552 -44.6336 -19.214399999999998 -58.47152 -31.064533333333333 -12.434239999999999 -10.648533333333333 -18.71205333333333 -21.220266666666667 -18.71205333333333 -29.7984 0 -18.255466666666663 27.216106666666665 -41.53973333333333 72.60810666666666 -57.36586666666666 5.5077333333333325 -1.9205333333333332 11.273599999999998 -3.7301333333333333 17.25653333333333 -5.4304 6.273599999999999 20.40693333333333 14.502933333333333 41.742399999999996 24.434133333333335 63.31733333333333 -10.059733333333334 21.89493333333333 -18.405866666666665 43.57066666666666 -24.740799999999997 64.21653333333333 -4.265599999999999 -1.2261333333333333 -8.397866666666665 -2.5168 -12.374399999999998 -3.8746666666666667Zm24.24106666666667 -165.00746666666666c-9.421866666666666 -48.1504 -3.164266666666667 -84.4736 12.581333333333333 -93.58826666666666 16.772266666666667 -9.709599999999998 53.859733333333324 4.134399999999999 92.9488 38.843199999999996 2.498666666666667 2.2181333333333333 5.007466666666666 4.540266666666666 7.522666666666667 6.9424 -14.565866666666667 15.640533333333332 -28.958933333333334 33.446933333333334 -42.70773333333333 52.85066666666666 -23.57813333333333 2.1850666666666667 -46.14773333333333 5.696 -66.89866666666666 10.396799999999999 -1.3045333333333333 -5.247999999999999 -2.4602666666666666 -10.404266666666667 -3.4463999999999997 -15.4448Zm216.25226666666666 53.397866666666665c-4.960533333333333 -8.568 -10.053333333333333 -16.934399999999997 -15.2448 -25.071466666666666 15.995733333333334 2.0218666666666665 31.321066666666667 4.706133333333333 45.71306666666666 7.9909333333333326 -4.320533333333334 13.847466666666666 -9.706133333333334 28.3264 -16.045333333333332 43.169066666666666 -4.547733333333333 -8.6336 -9.357866666666666 -17.338666666666665 -14.422933333333333 -26.088533333333334ZM256.2389333333333 118.93813333333333c9.878933333333332 10.701866666666668 19.77173333333333 22.650666666666666 29.501866666666665 35.61493333333333 -9.805333333333333 -0.4629333333333333 -19.732266666666668 -0.704 -29.740799999999997 -0.704 -9.914133333333332 0 -19.767466666666664 0.23573333333333335 -29.51253333333333 0.6906666666666667 9.740266666666667 -12.843733333333333 19.718933333333332 -24.776533333333333 29.751466666666666 -35.6016Zm-88.75199999999998 86.04266666666666c-4.9552 8.592533333333332 -9.675733333333334 17.250666666666667 -14.152000000000001 25.924266666666668 -6.2368 -14.790933333333331 -11.572266666666666 -29.335466666666665 -15.930666666666667 -43.37973333333333 14.303999999999998 -3.2010666666666663 29.557333333333332 -5.818133333333333 45.4512 -7.802133333333334 -5.265066666666666 8.2128 -10.399466666666665 16.642133333333334 -15.368533333333334 25.2576Zm15.826133333333333 127.98133333333334c-16.421333333333333 -1.832 -31.904 -4.3141333333333325 -46.20373333333333 -7.4272 4.427733333333333 -14.2944 9.881066666666666 -29.149866666666668 16.2496 -44.2592 4.4879999999999995 8.6672 9.2272 17.328533333333333 14.212799999999998 25.940266666666666 5.0784 8.7728 10.3408 17.365866666666665 15.741333333333332 25.746133333333333Zm73.5184 60.767466666666664c-10.1504 -10.952 -20.275199999999998 -23.066666666666666 -30.163733333333333 -36.0976 9.599466666666666 0.3765333333333333 19.386133333333333 0.5690666666666666 29.332266666666662 0.5690666666666666 10.218666666666666 0 20.32 -0.2304 30.26293333333333 -0.6725333333333332 -9.762666666666666 13.2656 -19.619733333333333 25.398933333333332 -29.431466666666665 36.20106666666666Zm102.22186666666666 -113.224c6.700799999999999 15.272533333333332 12.349333333333334 30.050133333333335 16.834133333333334 44.10133333333333 -14.535466666666666 3.3162666666666665 -30.229866666666666 5.9872 -46.76533333333333 7.971733333333333 5.204266666666666 -8.247466666666666 10.341866666666666 -16.7568 15.389866666666666 -25.510399999999997 5.1072 -8.855466666666667 9.956266666666666 -17.7248 14.541333333333334 -26.562666666666665Zm-33.0928 15.863466666666667c-7.8368 13.588266666666666 -15.882133333333332 26.559466666666665 -24.050133333333335 38.80373333333333 -14.8768 1.0634666666666666 -30.245866666666664 1.6117333333333335 -45.910399999999996 1.6117333333333335 -15.601066666666664 0 -30.777066666666663 -0.48479999999999995 -45.3904 -1.4330666666666665 -8.497066666666665 -12.404799999999998 -16.717333333333332 -25.41493333333333 -24.503999999999998 -38.8656 -7.766399999999999 -13.413866666666665 -14.912533333333332 -26.941333333333333 -21.389333333333333 -40.39306666666666 6.475199999999999 -13.482666666666667 13.604266666666668 -27.025066666666664 21.325866666666666 -40.41493333333333l-0.0021333333333333334 0.0026666666666666666c7.7424 -13.4256 15.890666666666664 -26.372266666666665 24.30933333333333 -38.6992 14.909333333333333 -1.1274666666666666 30.1984 -1.7151999999999998 45.6496 -1.7151999999999998 15.521066666666666 0 30.8304 0.5925333333333334 45.736 1.7290666666666665 8.2896 12.237333333333334 16.382933333333334 25.141866666666665 24.155199999999997 38.569066666666664 7.860799999999999 13.578133333333334 15.082133333333333 27.03093333333333 21.612266666666663 40.224533333333326 -6.510933333333334 13.420266666666667 -13.715733333333333 27.008 -21.541866666666667 40.58026666666666Zm44.18026666666666 -239.15946666666665c16.788266666666665 9.681066666666666 23.3168 48.72586666666667 12.769066666666667 99.92533333333333 -0.6730666666666667 3.2666666666666666 -1.4304 6.594666666666666 -2.253333333333333 9.966933333333333 -20.799466666666667 -4.7994666666666665 -43.38506666666667 -8.370666666666665 -67.032 -10.588799999999999 -13.775466666666667 -19.617066666666666 -28.050666666666665 -37.4512 -42.3792 -52.89066666666666 3.852266666666667 -3.706133333333333 7.699199999999999 -7.239999999999999 11.530133333333334 -10.574399999999999 37.01173333333333 -32.21013333333333 71.60426666666666 -44.92730666666667 87.36533333333333 -35.83839999999999ZM256 210.81173333333334c24.723733333333332 0 44.767466666666664 20.042666666666666 44.767466666666664 44.767466666666664 0 24.723733333333332 -20.043733333333332 44.766933333333334 -44.767466666666664 44.766933333333334s-44.767466666666664 -20.0432 -44.767466666666664 -44.766933333333334c0 -24.724800000000002 20.043733333333332 -44.767466666666664 44.767466666666664 -44.767466666666664Z" stroke-width="5.3333"></path></svg>